<svg width="28" height="28" viewBox="0 0 28 28" fill="none" xmlns="http://www.w3.org/2000/svg">
<path d="M20.9668 23.7999H7.03395C6.31941 23.8307 5.60952 23.6708 4.97716 23.3367C4.34478 23.0026 3.81268 22.5063 3.43538 21.8988C3.05807 21.2912 2.84915 20.5941 2.83005 19.8792C2.81096 19.1642 2.9824 18.4572 3.32675 17.8303L10.2931 5.72311C10.6793 5.08559 11.2234 4.55847 11.8729 4.19261C12.5222 3.82675 13.2549 3.63452 14.0003 3.63452C14.7457 3.63452 15.4785 3.82675 16.1278 4.19261C16.7772 4.55847 17.3214 5.08559 17.7076 5.72311L24.674 17.8303C25.0183 18.4572 25.1898 19.1642 25.1706 19.8792C25.1516 20.5941 24.9427 21.2912 24.5654 21.8988C24.188 22.5063 23.6558 23.0026 23.0235 23.3367C22.3911 23.6708 21.6812 23.8307 20.9668 23.7999Z" stroke="#006786" stroke-width="2" stroke-linecap="round" stroke-linejoin="round"/>
<path d="M12.7466 19.2078C12.7466 19.0422 12.7794 18.8781 12.8431 18.7252C12.9069 18.5722 13.0003 18.4334 13.118 18.3168C13.2356 18.2003 13.3752 18.1081 13.5287 18.0457C13.6822 17.9833 13.8464 17.952 14.0122 17.9534C14.2566 17.9579 14.4942 18.0342 14.6955 18.1729C14.8966 18.3117 15.0525 18.5068 15.1436 18.7336C15.2345 18.9605 15.2566 19.2092 15.2071 19.4485C15.1575 19.6878 15.0384 19.9072 14.8648 20.0794C14.6912 20.2514 14.4707 20.3685 14.2309 20.416C13.9911 20.4634 13.7427 20.4391 13.5167 20.3461C13.2906 20.2531 13.097 20.0955 12.9601 19.893C12.8231 19.6906 12.7488 19.4523 12.7466 19.2078ZM13.1498 16.1502L12.993 10.3038C12.9781 10.1633 12.9929 10.0212 13.0365 9.88676C13.0801 9.75233 13.1515 9.62856 13.246 9.5235C13.3405 9.41843 13.4561 9.33443 13.5851 9.27692C13.7143 9.21942 13.854 9.1897 13.9954 9.1897C14.1367 9.1897 14.2765 9.21942 14.4055 9.27692C14.5347 9.33443 14.6501 9.41843 14.7447 9.5235C14.8392 9.62856 14.9106 9.75233 14.9542 9.88676C14.9978 10.0212 15.0127 10.1633 14.9978 10.3038L14.8522 16.1502C14.8522 16.3759 14.7625 16.5925 14.6029 16.7521C14.4432 16.9117 14.2267 17.0014 14.001 17.0014C13.7752 17.0014 13.5587 16.9117 13.3991 16.7521C13.2395 16.5925 13.1498 16.3759 13.1498 16.1502Z" fill="#006786"/>
</svg>
