<svg width="20" height="20" viewBox="0 0 20 20" fill="none" xmlns="http://www.w3.org/2000/svg">
<path d="M1.6665 9.99992C1.6665 6.85722 1.6665 5.28588 2.64281 4.30956C3.61913 3.33325 5.19047 3.33325 8.33317 3.33325H11.6665C14.8092 3.33325 16.3806 3.33325 17.3568 4.30956C18.3332 5.28588 18.3332 6.85722 18.3332 9.99992V11.6666C18.3332 14.8093 18.3332 16.3807 17.3568 17.3569C16.3806 18.3333 14.8092 18.3333 11.6665 18.3333H8.33317C5.19047 18.3333 3.61913 18.3333 2.64281 17.3569C1.6665 16.3807 1.6665 14.8093 1.6665 11.6666V9.99992Z" stroke="#5F5F5F" stroke-width="1.5"/>
<path d="M5.83301 3.33325V2.08325" stroke="#5F5F5F" stroke-width="1.5" stroke-linecap="round"/>
<path d="M14.1665 3.33325V2.08325" stroke="#5F5F5F" stroke-width="1.5" stroke-linecap="round"/>
<path d="M2.08301 7.5H17.9163" stroke="#5F5F5F" stroke-width="1.5" stroke-linecap="round"/>
<path d="M14.9997 14.1666C14.9997 14.6268 14.6266 14.9999 14.1663 14.9999C13.7061 14.9999 13.333 14.6268 13.333 14.1666C13.333 13.7063 13.7061 13.3333 14.1663 13.3333C14.6266 13.3333 14.9997 13.7063 14.9997 14.1666Z" fill="#5F5F5F"/>
<path d="M14.9997 10.8333C14.9997 11.2936 14.6266 11.6667 14.1663 11.6667C13.7061 11.6667 13.333 11.2936 13.333 10.8333C13.333 10.3731 13.7061 10 14.1663 10C14.6266 10 14.9997 10.3731 14.9997 10.8333Z" fill="#5F5F5F"/>
<path d="M10.8332 14.1666C10.8332 14.6268 10.4601 14.9999 9.99984 14.9999C9.53959 14.9999 9.1665 14.6268 9.1665 14.1666C9.1665 13.7063 9.53959 13.3333 9.99984 13.3333C10.4601 13.3333 10.8332 13.7063 10.8332 14.1666Z" fill="#5F5F5F"/>
<path d="M10.8332 10.8333C10.8332 11.2936 10.4601 11.6667 9.99984 11.6667C9.53959 11.6667 9.1665 11.2936 9.1665 10.8333C9.1665 10.3731 9.53959 10 9.99984 10C10.4601 10 10.8332 10.3731 10.8332 10.8333Z" fill="#5F5F5F"/>
<path d="M6.66667 14.1666C6.66667 14.6268 6.29357 14.9999 5.83333 14.9999C5.3731 14.9999 5 14.6268 5 14.1666C5 13.7063 5.3731 13.3333 5.83333 13.3333C6.29357 13.3333 6.66667 13.7063 6.66667 14.1666Z" fill="#5F5F5F"/>
<path d="M6.66667 10.8333C6.66667 11.2936 6.29357 11.6667 5.83333 11.6667C5.3731 11.6667 5 11.2936 5 10.8333C5 10.3731 5.3731 10 5.83333 10C6.29357 10 6.66667 10.3731 6.66667 10.8333Z" fill="#5F5F5F"/>
</svg>
