<svg width="20" height="20" viewBox="0 0 20 20" fill="none" xmlns="http://www.w3.org/2000/svg">
<path d="M19.1668 10.0002C19.1668 15.0627 15.0627 19.1668 10.0002 19.1668C4.93755 19.1668 0.833496 15.0627 0.833496 10.0002C0.833496 4.93755 4.93755 0.833496 10.0002 0.833496C15.0627 0.833496 19.1668 4.93755 19.1668 10.0002ZM2.50585 10.0002C2.50585 14.1392 5.86117 17.4945 10.0002 17.4945C14.1392 17.4945 17.4945 14.1392 17.4945 10.0002C17.4945 5.86117 14.1392 2.50585 10.0002 2.50585C5.86117 2.50585 2.50585 5.86117 2.50585 10.0002Z" fill="#A9B5C5"/>
<path d="M10.0003 4.16699C9.54008 4.16699 9.16699 4.54008 9.16699 5.00033V10.3892C9.16699 10.3892 9.16699 10.6065 9.27258 10.7699C9.34324 10.9085 9.45341 11.0289 9.59816 11.1125L13.448 13.3352C13.8466 13.5653 14.3562 13.4287 14.5863 13.0302C14.8164 12.6316 14.6799 12.1219 14.2813 11.8918L10.8337 9.90133V5.00033C10.8337 4.54009 10.4606 4.16699 10.0003 4.16699Z" fill="#A9B5C5"/>
</svg>
