<svg width="20" height="20" viewBox="0 0 12 12" fill="none" xmlns="http://www.w3.org/2000/svg">
<path d="M9.76518 2.76517C9.91162 2.61872 9.91162 2.38128 9.76518 2.23483C9.61873 2.08839 9.38129 2.08839 9.23485 2.23483L6.00001 5.46968L2.76517 2.23484C2.61872 2.08839 2.38128 2.08839 2.23483 2.23484C2.08839 2.38128 2.08839 2.61872 2.23483 2.76517L5.46968 6.00001L2.23485 9.23484C2.0884 9.38128 2.0884 9.61872 2.23485 9.76516C2.3813 9.91161 2.61873 9.91161 2.76518 9.76516L6.00001 6.53034L9.23484 9.76517C9.38128 9.91161 9.61872 9.91161 9.76516 9.76517C9.91161 9.61872 9.91161 9.38128 9.76516 9.23484L6.53034 6.00001L9.76518 2.76517Z" fill="#F5F5F5"/>
</svg>
