<svg width="14" height="14" viewBox="0 0 14 14" fill="none" xmlns="http://www.w3.org/2000/svg">
<path d="M3.11763 3.82349H2.41176C2.03733 3.82349 1.67825 3.97222 1.41349 4.23698C1.14874 4.50174 1 4.86082 1 5.23524V11.5881C1 11.9626 1.14874 12.3216 1.41349 12.5864C1.67825 12.8512 2.03733 12.9999 2.41176 12.9999H8.76466C9.13908 12.9999 9.49816 12.8512 9.76292 12.5864C10.0277 12.3216 10.1764 11.9626 10.1764 11.5881V10.8823" stroke="#A9B5C5" stroke-linecap="round" stroke-linejoin="round"/>
<path d="M9.47044 2.41183L11.5881 4.52946M12.5657 3.53065C12.8437 3.25264 12.9999 2.87558 12.9999 2.48242C12.9999 2.08926 12.8437 1.7122 12.5657 1.43419C12.2877 1.15618 11.9106 1 11.5175 1C11.1243 1 10.7473 1.15618 10.4693 1.43419L4.5293 7.35298V9.47061H6.64693L12.5657 3.53065Z" stroke="#A9B5C5" stroke-linecap="round" stroke-linejoin="round"/>
</svg>
