<svg width="20" height="20" viewBox="0 0 20 20" fill="none" xmlns="http://www.w3.org/2000/svg">
<g clip-path="url(#clip0_54_31677)">
<path d="M5.67326 0C6.05986 0 6.37326 0.313244 6.37326 0.699649L6.373 2.009H13.89L13.8901 0.708141C13.8901 0.321736 14.2035 0.0084919 14.5901 0.0084919C14.9767 0.0084919 15.2901 0.321736 15.2901 0.708141L15.29 2.009L18 2.00902C19.1046 2.00902 20 2.904 20 4.00802V18.001C20 19.105 19.1046 20 18 20H2C0.89543 20 0 19.105 0 18.001V4.00802C0 2.904 0.89543 2.00902 2 2.00902L4.973 2.009L4.97326 0.699649C4.97326 0.313244 5.28666 0 5.67326 0ZM1.4 7.742V18.001C1.4 18.3322 1.66863 18.6007 2 18.6007H18C18.3314 18.6007 18.6 18.3322 18.6 18.001V7.756L1.4 7.742ZM6.66667 14.6186V16.2848H5V14.6186H6.66667ZM10.8333 14.6186V16.2848H9.16667V14.6186H10.8333ZM15 14.6186V16.2848H13.3333V14.6186H15ZM6.66667 10.6418V12.3079H5V10.6418H6.66667ZM10.8333 10.6418V12.3079H9.16667V10.6418H10.8333ZM15 10.6418V12.3079H13.3333V10.6418H15ZM4.973 3.408L2 3.40832C1.66863 3.40832 1.4 3.67681 1.4 4.00802V6.343L18.6 6.357V4.00802C18.6 3.67681 18.3314 3.40832 18 3.40832L15.29 3.408L15.2901 4.33697C15.2901 4.72338 14.9767 5.03662 14.5901 5.03662C14.2035 5.03662 13.8901 4.72338 13.8901 4.33697L13.89 3.408H6.373L6.37326 4.32848C6.37326 4.71489 6.05986 5.02813 5.67326 5.02813C5.28666 5.02813 4.97326 4.71489 4.97326 4.32848L4.973 3.408Z" fill="#A9B5C5"/>
</g>
<defs>
<clipPath id="clip0_54_31677">
<rect width="20" height="20" fill="white"/>
</clipPath>
</defs>
</svg>
