<svg width="20" height="20" viewBox="0 0 20 20" fill="none" xmlns="http://www.w3.org/2000/svg">
<path fill-rule="evenodd" clip-rule="evenodd" d="M11.939 6.22479C11.9381 7.23151 11.1214 8.04699 10.1148 8.04639C9.10804 8.0458 8.29228 7.22938 8.2926 6.22266C8.29292 5.21595 9.10908 4.39999 10.1158 4.39999C10.5996 4.40021 11.0634 4.59258 11.4053 4.93479C11.7472 5.27701 11.9392 5.74104 11.939 6.22479Z" stroke="#F5F5F5" stroke-width="1.5" stroke-linecap="round" stroke-linejoin="round"/>
<path fill-rule="evenodd" clip-rule="evenodd" d="M11.9975 10.7352H8.23746C6.92379 10.7765 5.88025 11.8533 5.88025 13.1676C5.88025 14.4819 6.92379 15.5587 8.23746 15.6H11.9975C13.3111 15.5587 14.3546 14.4819 14.3546 13.1676C14.3546 11.8533 13.3111 10.7765 11.9975 10.7352Z" stroke="#F5F5F5" stroke-width="1.5" stroke-linecap="round" stroke-linejoin="round"/>
<path fill-rule="evenodd" clip-rule="evenodd" d="M16.5503 7.61921C16.5498 8.38921 15.9253 9.01311 15.1553 9.01279C14.3853 9.01255 13.7613 8.38815 13.7615 7.61815C13.7616 6.84814 14.3859 6.22401 15.1559 6.22401C15.5258 6.22401 15.8806 6.37103 16.1421 6.63271C16.4036 6.89438 16.5504 7.24925 16.5503 7.61921Z" stroke="#F5F5F5" stroke-width="1.5" stroke-linecap="round" stroke-linejoin="round"/>
<path fill-rule="evenodd" clip-rule="evenodd" d="M3.46704 7.61921C3.46704 8.38931 4.09134 9.0136 4.86144 9.0136C5.63155 9.0136 6.25584 8.38931 6.25584 7.61921C6.25584 6.8491 5.63155 6.22481 4.86144 6.22481C4.09134 6.22481 3.46704 6.8491 3.46704 7.61921Z" stroke="#F5F5F5" stroke-width="1.5" stroke-linecap="round" stroke-linejoin="round"/>
<path d="M15.5494 10.6712C15.2181 10.6712 14.9494 10.9398 14.9494 11.2712C14.9494 11.6025 15.2181 11.8712 15.5494 11.8712V10.6712ZM16.595 11.2712L16.6074 10.6713C16.6033 10.6712 16.5992 10.6712 16.595 10.6712V11.2712ZM16.595 14.992V15.592C16.5992 15.592 16.6033 15.5919 16.6074 15.5918L16.595 14.992ZM15.5494 14.392C15.2181 14.392 14.9494 14.6606 14.9494 14.992C14.9494 15.3233 15.2181 15.592 15.5494 15.592V14.392ZM4.46782 11.8712C4.79919 11.8712 5.06782 11.6025 5.06782 11.2712C5.06782 10.9398 4.79919 10.6712 4.46782 10.6712V11.8712ZM3.42222 11.2712V10.6712C3.41807 10.6712 3.41393 10.6712 3.40978 10.6713L3.42222 11.2712ZM3.42222 14.992L3.40978 15.5918C3.41393 15.5919 3.41807 15.592 3.42222 15.592V14.992ZM4.46782 15.592C4.79919 15.592 5.06782 15.3233 5.06782 14.992C5.06782 14.6606 4.79919 14.392 4.46782 14.392V15.592ZM15.5494 11.8712H16.595V10.6712H15.5494V11.8712ZM16.5826 11.871C17.2686 11.8853 17.8172 12.4454 17.8172 13.1316H19.0172C19.0172 11.7924 17.9463 10.6991 16.6074 10.6713L16.5826 11.871ZM17.8172 13.1316C17.8172 13.8177 17.2686 14.3779 16.5826 14.3921L16.6074 15.5918C17.9463 15.5641 19.0172 14.4708 19.0172 13.1316H17.8172ZM16.595 14.392H15.5494V15.592H16.595V14.392ZM4.46782 10.6712H3.42222V11.8712H4.46782V10.6712ZM3.40978 10.6713C2.07089 10.6991 1 11.7924 1 13.1316H2.2C2.2 12.4454 2.74867 11.8853 3.43466 11.871L3.40978 10.6713ZM1 13.1316C1 14.4708 2.07089 15.5641 3.40978 15.5918L3.43466 14.3921C2.74867 14.3779 2.2 13.8177 2.2 13.1316H1ZM3.42222 15.592H4.46782V14.392H3.42222V15.592Z" fill="#F5F5F5"/>
</svg>
