<svg width="42" height="42" viewBox="0 0 42 42" fill="none" xmlns="http://www.w3.org/2000/svg">
<rect width="42" height="42" rx="8" fill="#0094FF" fill-opacity="0.1"/>
<path d="M21 19C23.2091 19 25 17.2091 25 15C25 12.7909 23.2091 11 21 11C18.7909 11 17 12.7909 17 15C17 17.2091 18.7909 19 21 19Z" stroke="#0094FF" stroke-width="1.5"/>
<path d="M27 18C28.6569 18 30 16.8807 30 15.5C30 14.1193 28.6569 13 27 13" stroke="#0094FF" stroke-width="1.5" stroke-linecap="round"/>
<path d="M15 18C13.3432 18 12 16.8807 12 15.5C12 14.1193 13.3432 13 15 13" stroke="#0094FF" stroke-width="1.5" stroke-linecap="round"/>
<path d="M26.1973 24C26.7078 24.5883 27 25.2714 27 26C27 28.2091 24.3137 30 21 30C17.6863 30 15 28.2091 15 26C15 23.7909 17.6863 22 21 22C21.3407 22 21.6748 22.0189 22 22.0553" stroke="#0094FF" stroke-width="1.5" stroke-linecap="round"/>
<path d="M29 28C30.7542 27.6153 32 26.6411 32 25.5C32 24.3589 30.7542 23.3847 29 23" stroke="#0094FF" stroke-width="1.5" stroke-linecap="round"/>
<path d="M13 28C11.2457 27.6153 10 26.6411 10 25.5C10 24.3589 11.2457 23.3847 13 23" stroke="#0094FF" stroke-width="1.5" stroke-linecap="round"/>
</svg>
