<svg width="20" height="20" viewBox="0 0 20 20" fill="none" xmlns="http://www.w3.org/2000/svg">
<path d="M15.8333 9.16666H4.16667C3.24619 9.16666 2.5 9.91285 2.5 10.8333V15.8333C2.5 16.7538 3.24619 17.5 4.16667 17.5H15.8333C16.7538 17.5 17.5 16.7538 17.5 15.8333V10.8333C17.5 9.91285 16.7538 9.16666 15.8333 9.16666Z" stroke="#A9B5C5" stroke-width="1.5" stroke-linecap="round" stroke-linejoin="round"/>
<path d="M10 5.83333C10.9205 5.83333 11.6667 5.08714 11.6667 4.16667C11.6667 3.24619 10.9205 2.5 10 2.5C9.07957 2.5 8.33337 3.24619 8.33337 4.16667C8.33337 5.08714 9.07957 5.83333 10 5.83333Z" stroke="#A9B5C5" stroke-width="1.5" stroke-linecap="round" stroke-linejoin="round"/>
<path d="M10 5.83334V9.16668" stroke="#A9B5C5" stroke-width="1.5" stroke-linecap="round" stroke-linejoin="round"/>
<circle cx="6.66671" cy="13.3333" r="0.833333" fill="#A9B5C5"/>
<circle cx="13.3333" cy="13.3333" r="0.833333" fill="#A9B5C5"/>
</svg>
