<svg width="20" height="20" viewBox="0 0 20 20" fill="none" xmlns="http://www.w3.org/2000/svg">
<path d="M6.66663 15L8.57496 16.9083C8.76163 17.0963 8.98363 17.2455 9.22821 17.3473C9.47279 17.4491 9.73504 17.5015 9.99996 17.5015C10.2649 17.5015 10.5271 17.4491 10.7717 17.3473C11.0163 17.2455 11.2383 17.0963 11.425 16.9083L13.3333 15H15C15.884 15 16.7319 14.6488 17.357 14.0238C17.9821 13.3986 18.3333 12.5507 18.3333 11.6667V5.83333C18.3333 4.94927 17.9821 4.10148 17.357 3.47636C16.7319 2.85124 15.884 2.5 15 2.5H4.99996C4.1159 2.5 3.26806 2.85124 2.64293 3.47636C2.01781 4.10148 1.66663 4.94927 1.66663 5.83333V11.6667C1.66663 12.5507 2.01781 13.3986 2.64293 14.0238C3.26806 14.6488 4.1159 15 4.99996 15H6.66663Z" stroke="#A9B5C5" stroke-width="1.5" stroke-linecap="round" stroke-linejoin="round"/>
<path d="M14.1666 7.5H5.83325" stroke="#A9B5C5" stroke-width="1.5" stroke-linecap="round" stroke-linejoin="round"/>
<path d="M10.8333 10H5.83325" stroke="#A9B5C5" stroke-width="1.5" stroke-linecap="round" stroke-linejoin="round"/>
</svg>
