<svg width="140" height="140" viewBox="0 0 140 140" fill="none" xmlns="http://www.w3.org/2000/svg">
<path d="M140 70C140 108.66 108.66 140 70 140C31.3401 140 0 108.66 0 70C0 31.3401 31.3401 0 70 0C108.66 0 140 31.3401 140 70ZM14 70C14 100.928 39.0721 126 70 126C100.928 126 126 100.928 126 70C126 39.0721 100.928 14 70 14C39.0721 14 14 39.0721 14 70Z" fill="url(#paint0_linear_309_25533)"/>
<path d="M133 70C136.866 70 140.036 66.8583 139.65 63.0116C138.968 56.2164 137.295 49.5448 134.672 43.2122C131.154 34.7194 125.998 27.0026 119.497 20.5025C112.997 14.0024 105.281 8.84626 96.7878 5.32843C90.4552 2.70537 83.7836 1.03151 76.9884 0.34971C73.1417 -0.0362505 70 3.13401 70 7C70 10.866 73.146 13.9549 76.9818 14.4369C81.9369 15.0596 86.797 16.3436 91.4303 18.2627C98.2245 21.077 104.398 25.2019 109.598 30.402C114.798 35.6021 118.923 41.7755 121.737 48.5697C123.656 53.203 124.94 58.0631 125.563 63.0182C126.045 66.854 129.134 70 133 70Z" fill="#0094FF"/>
<defs>
<linearGradient id="paint0_linear_309_25533" x1="59.7838" y1="-62" x2="163.6" y2="186.784" gradientUnits="userSpaceOnUse">
<stop stop-color="#0094FF"/>
<stop offset="0.0001" stop-color="#0094FF"/>
<stop offset="1" stop-color="#141C29" stop-opacity="0"/>
</linearGradient>
</defs>
</svg>
