<svg width="42" height="42" viewBox="0 0 42 42" fill="none" xmlns="http://www.w3.org/2000/svg">
<rect width="42" height="42" rx="8" fill="#006786"/>
<path fill-rule="evenodd" clip-rule="evenodd" d="M20.0562 11C17.004 11 14.6425 13.6751 15.021 16.7037L15.0924 17.2743C15.1967 18.1094 14.8917 18.9434 14.2733 19.5141C12.9918 20.6967 12.6357 22.5789 13.3968 24.1478L13.4897 24.3393C14.199 25.8017 15.6816 26.7303 17.3069 26.7303H24.6964C26.0984 26.7303 27.4033 26.0141 28.156 24.8313C29.2186 23.1617 28.9372 20.9714 27.487 19.6247L27.4476 19.588C26.7837 18.9715 26.4569 18.0734 26.5692 17.1744L26.6273 16.7097C27.0063 13.6779 24.6423 11 21.5869 11H20.0562ZM16.3589 16.5365C16.081 14.3126 17.815 12.3483 20.0562 12.3483H21.5869C23.8313 12.3483 25.5678 14.3154 25.2894 16.5425L25.2313 17.0072C25.0652 18.3364 25.5485 19.6644 26.53 20.576L26.5695 20.6127C27.5428 21.5166 27.7317 22.9867 27.0185 24.1074C26.5133 24.9013 25.6375 25.382 24.6964 25.382H17.3069C16.1981 25.382 15.1867 24.7485 14.7028 23.7509L14.6099 23.5594C14.1083 22.5252 14.343 21.2845 15.1877 20.505C16.1259 19.6392 16.5886 18.3739 16.4303 17.1071L16.3589 16.5365Z" fill="white"/>
<path d="M18.8727 28.3483C18.6493 28.0505 18.2268 27.9901 17.9289 28.2135C17.631 28.4369 17.5707 28.8594 17.7941 29.1573L18.0637 29.5169C19.5469 31.4944 22.5132 31.4944 23.9963 29.5169L24.266 29.1573C24.4894 28.8594 24.429 28.4369 24.1311 28.2135C23.8333 27.9901 23.4107 28.0505 23.1873 28.3483L22.9177 28.7079C21.9738 29.9663 20.0862 29.9663 19.1424 28.7079L18.8727 28.3483Z" fill="white"/>
<rect x="23.5" y="11.5" width="9" height="9" rx="4.5" fill="#FF3E46" stroke="white"/>
</svg>
