<svg width="12" height="12" viewBox="0 0 12 12" fill="none" xmlns="http://www.w3.org/2000/svg">
<g clip-path="url(#clip0_54_32410)">
<path d="M7.875 10.9334C9.23262 10.8346 10.2494 10.6395 10.4444 10.4444C10.7222 10.1667 11 8.22225 11 6C11 5.60544 10.9763 5.01494 10.9573 4.60236C10.943 4.29485 10.8131 4.00463 10.5954 3.78696L8.21306 1.40462C7.99538 1.18696 7.70513 1.05702 7.39763 1.04277C6.98506 1.02366 6.39456 1 6 1C3.77777 1 1.83333 1.27777 1.55556 1.55556C1.27777 1.83333 1 3.77777 1 6C1 8.22225 1.27777 10.1667 1.55556 10.4444C1.7506 10.6395 2.76735 10.8346 4.125 10.9334M7.875 10.9334C7.29912 10.9754 6.66188 11 6 11C5.33812 11 4.70089 10.9754 4.125 10.9334M7.875 10.9334V9.75C7.875 9.75 7.875 7.875 6 7.875C4.125 7.875 4.125 9.75 4.125 9.75V10.9334" stroke="#F5F5F5" stroke-width="1.5" stroke-linecap="round" stroke-linejoin="round"/>
</g>
<defs>
<clipPath id="clip0_54_32410">
<rect width="12" height="12" fill="white"/>
</clipPath>
</defs>
</svg>
