<svg width="18" height="18" viewBox="0 0 18 18" fill="none" xmlns="http://www.w3.org/2000/svg">
<path fill-rule="evenodd" clip-rule="evenodd" d="M8.99976 6.1875C7.44646 6.1875 6.18726 7.4467 6.18726 9C6.18726 10.5533 7.44646 11.8125 8.99976 11.8125C10.5531 11.8125 11.8123 10.5533 11.8123 9C11.8123 7.4467 10.5531 6.1875 8.99976 6.1875ZM7.31226 9C7.31226 8.06802 8.06778 7.3125 8.99976 7.3125C9.93174 7.3125 10.6873 8.06802 10.6873 9C10.6873 9.93198 9.93174 10.6875 8.99976 10.6875C8.06778 10.6875 7.31226 9.93198 7.31226 9Z" fill="#A9B5C5"/>
<path fill-rule="evenodd" clip-rule="evenodd" d="M8.99976 2.4375C7.39404 2.4375 5.94219 3.23174 4.76356 4.19679C3.57848 5.1671 2.60947 6.35899 1.95832 7.26601L1.90462 7.34069C1.51262 7.88538 1.18994 8.33374 1.18994 9C1.18994 9.66626 1.51262 10.1146 1.90462 10.6593L1.95832 10.734C2.60947 11.641 3.57848 12.8329 4.76356 13.8032C5.94219 14.7683 7.39404 15.5625 8.99976 15.5625C10.6055 15.5625 12.0573 14.7683 13.236 13.8032C14.421 12.8329 15.39 11.641 16.0412 10.734L16.0949 10.6593C16.4869 10.1146 16.8096 9.66626 16.8096 9C16.8096 8.33374 16.4869 7.88538 16.0949 7.3407L16.0412 7.26601C15.39 6.35899 14.421 5.1671 13.236 4.19679C12.0573 3.23174 10.6055 2.4375 8.99976 2.4375ZM2.8722 7.92209C3.49415 7.05574 4.39737 5.9506 5.47626 5.06723C6.56158 4.17859 7.76543 3.5625 8.99976 3.5625C10.2341 3.5625 11.4379 4.17859 12.5233 5.06723C13.6021 5.9506 14.5054 7.05574 15.1273 7.92209C15.5953 8.57395 15.6846 8.73111 15.6846 9C15.6846 9.26889 15.5953 9.42605 15.1273 10.0779C14.5054 10.9443 13.6022 12.0494 12.5233 12.9328C11.4379 13.8214 10.2341 14.4375 8.99976 14.4375C7.76543 14.4375 6.56158 13.8214 5.47626 12.9328C4.39737 12.0494 3.49416 10.9443 2.8722 10.0779C2.40423 9.42605 2.31494 9.26889 2.31494 9C2.31494 8.73111 2.40423 8.57395 2.8722 7.92209Z" fill="#A9B5C5"/>
</svg>
