<svg width="16" height="20" viewBox="0 0 16 20" fill="none" xmlns="http://www.w3.org/2000/svg">
<path d="M13.753 11.9999C14.9957 11.9999 16.003 13.0073 16.003 14.2499V15.155C16.003 16.2487 15.5256 17.2879 14.6958 18.0003C13.1303 19.3442 10.89 20.0011 8 20.0011C5.1105 20.0011 2.87168 19.3445 1.30882 18.0008C0.480195 17.2884 0.00354004 16.25 0.00354004 15.1572V14.2499C0.00354004 13.0073 1.0109 11.9999 2.25354 11.9999H13.753ZM13.753 13.4999H2.25354C1.83933 13.4999 1.50354 13.8357 1.50354 14.2499V15.1572C1.50354 15.8129 1.78953 16.4359 2.28671 16.8634C3.54479 17.945 5.4408 18.5011 8 18.5011C10.56 18.5011 12.4578 17.9447 13.7187 16.8622C14.2166 16.4347 14.503 15.8112 14.503 15.155V14.2499C14.503 13.8357 14.1673 13.4999 13.753 13.4999ZM7.89856 0.00733495L8.00033 0.000488281C8.38002 0.000488281 8.69382 0.282642 8.74348 0.648718L8.75033 0.750488L8.74954 1.49949L12.25 1.49999C13.4926 1.49999 14.5 2.50735 14.5 3.74999V8.25459C14.5 9.49723 13.4926 10.5046 12.25 10.5046H3.75C2.50736 10.5046 1.5 9.49723 1.5 8.25459V3.74999C1.5 2.50735 2.50736 1.49999 3.75 1.49999L7.24954 1.49949L7.25033 0.750488C7.25033 0.370793 7.53248 0.0569974 7.89856 0.00733495ZM12.25 2.99999H3.75C3.33578 2.99999 3 3.33578 3 3.74999V8.25459C3 8.6688 3.33578 9.00459 3.75 9.00459H12.25C12.6642 9.00459 13 8.6688 13 8.25459V3.74999C13 3.33578 12.6642 2.99999 12.25 2.99999ZM5.74929 4.49999C6.43925 4.49999 6.99858 5.05932 6.99858 5.74928C6.99858 6.43925 6.43925 6.99857 5.74929 6.99857C5.05932 6.99857 4.5 6.43925 4.5 5.74928C4.5 5.05932 5.05932 4.49999 5.74929 4.49999ZM10.242 4.49999C10.932 4.49999 11.4913 5.05932 11.4913 5.74928C11.4913 6.43925 10.932 6.99857 10.242 6.99857C9.55206 6.99857 8.99273 6.43925 8.99273 5.74928C8.99273 5.05932 9.55206 4.49999 10.242 4.49999Z" fill="#0094FF"/>
</svg>
