<svg width="28" height="29" viewBox="0 0 28 29" fill="none" xmlns="http://www.w3.org/2000/svg">
<g clip-path="url(#clip0_803_3046)">
<path d="M22.5288 12.7933C22.1736 12.7933 21.8222 12.8273 21.4775 12.8949C21.3202 8.66103 17.8267 5.26514 13.5551 5.26514C9.62689 5.26514 6.30309 8.17162 5.71999 11.9924C2.55286 12.0698 0 14.6704 0 17.8558C0 21.0899 2.63105 23.7209 5.86509 23.7209H10.772C11.1431 23.7209 11.4437 23.4202 11.4437 23.0491C11.4437 22.6781 11.1431 22.3774 10.772 22.3774H5.86509C3.37189 22.3774 1.34356 20.349 1.34356 17.8558C1.34356 15.3626 3.37198 13.3343 5.86509 13.3343C5.98754 13.3343 6.11706 13.3403 6.26091 13.3528L6.94165 13.4117L6.98903 12.7301C7.22738 9.29752 10.1116 6.6087 13.5551 6.6087C17.1857 6.6087 20.1395 9.56247 20.1395 13.193C20.1395 13.3599 20.1315 13.5383 20.1151 13.7384L20.027 14.8103L21.029 14.4192C21.5087 14.2319 22.0134 14.1369 22.529 14.1369C24.8049 14.1369 26.6565 15.9886 26.6565 18.2645C26.6565 20.5403 24.8049 22.3919 22.529 22.3919C22.4692 22.3919 20.6831 22.3883 18.9044 22.3847C17.1386 22.3811 15.38 22.3775 15.3216 22.3775C14.9035 22.3775 14.6849 22.1762 14.6719 21.7791V14.5276L15.4009 15.3934C15.6398 15.6774 16.0636 15.7137 16.3474 15.4747C16.6312 15.2358 16.6676 14.812 16.4286 14.5282L14.813 12.609C14.6095 12.3672 14.3171 12.2285 14.0107 12.2285C13.7042 12.2285 13.4118 12.3672 13.2084 12.609L11.5928 14.5282C11.3538 14.812 11.3902 15.2358 11.674 15.4747C11.8001 15.5808 11.9536 15.6326 12.1063 15.6326C12.2977 15.6326 12.4877 15.5513 12.6205 15.3934L13.3282 14.5527V21.7857C13.3282 22.5637 13.8591 23.721 15.3215 23.721C15.3799 23.721 17.1371 23.7246 18.9015 23.7281C20.6816 23.7318 22.469 23.7353 22.5289 23.7353C25.5458 23.7353 28 21.2811 28 18.2644C28 15.2475 25.5457 12.7933 22.5288 12.7933Z" fill="#F5F5F5"/>
</g>
<defs>
<clipPath id="clip0_803_3046">
<rect width="28" height="28" fill="white" transform="translate(0 0.5)"/>
</clipPath>
</defs>
</svg>
